%TF.GenerationSoftware,KiCad,Pcbnew,(5.1.8-0-10_14)*%
%TF.CreationDate,2020-12-07T18:30:00+01:00*%
%TF.ProjectId,cao,63616f2e-6b69-4636-9164-5f7063625858,rev?*%
%TF.SameCoordinates,Original*%
%TF.FileFunction,Paste,Top*%
%TF.FilePolarity,Positive*%
%FSLAX46Y46*%
G04 Gerber Fmt 4.6, Leading zero omitted, Abs format (unit mm)*
G04 Created by KiCad (PCBNEW (5.1.8-0-10_14)) date 2020-12-07 18:30:00*
%MOMM*%
%LPD*%
G01*
G04 APERTURE LIST*
%ADD10R,0.800000X1.700000*%
%ADD11R,1.200000X1.400000*%
%ADD12R,0.800000X0.800000*%
%ADD13O,2.000000X0.550000*%
%ADD14O,0.550000X2.000000*%
%ADD15R,0.800000X0.655600*%
%ADD16R,0.655600X0.800000*%
G04 APERTURE END LIST*
D10*
%TO.C,SW2*%
X137270000Y-93850000D03*
X133870000Y-93850000D03*
%TD*%
%TO.C,SW1*%
X135450000Y-76260000D03*
X132050000Y-76260000D03*
%TD*%
D11*
%TO.C,Y1*%
X140560000Y-90980000D03*
X140560000Y-88780000D03*
X138860000Y-88780000D03*
X138860000Y-90980000D03*
%TD*%
%TO.C,R2*%
G36*
G01*
X130357500Y-94340000D02*
X130882500Y-94340000D01*
G75*
G02*
X131095000Y-94552500I0J-212500D01*
G01*
X131095000Y-94977500D01*
G75*
G02*
X130882500Y-95190000I-212500J0D01*
G01*
X130357500Y-95190000D01*
G75*
G02*
X130145000Y-94977500I0J212500D01*
G01*
X130145000Y-94552500D01*
G75*
G02*
X130357500Y-94340000I212500J0D01*
G01*
G37*
G36*
G01*
X130357500Y-92690000D02*
X130882500Y-92690000D01*
G75*
G02*
X131095000Y-92902500I0J-212500D01*
G01*
X131095000Y-93327500D01*
G75*
G02*
X130882500Y-93540000I-212500J0D01*
G01*
X130357500Y-93540000D01*
G75*
G02*
X130145000Y-93327500I0J212500D01*
G01*
X130145000Y-92902500D01*
G75*
G02*
X130357500Y-92690000I212500J0D01*
G01*
G37*
%TD*%
%TO.C,R1*%
G36*
G01*
X130117500Y-77440000D02*
X130642500Y-77440000D01*
G75*
G02*
X130855000Y-77652500I0J-212500D01*
G01*
X130855000Y-78077500D01*
G75*
G02*
X130642500Y-78290000I-212500J0D01*
G01*
X130117500Y-78290000D01*
G75*
G02*
X129905000Y-78077500I0J212500D01*
G01*
X129905000Y-77652500D01*
G75*
G02*
X130117500Y-77440000I212500J0D01*
G01*
G37*
G36*
G01*
X130117500Y-75790000D02*
X130642500Y-75790000D01*
G75*
G02*
X130855000Y-76002500I0J-212500D01*
G01*
X130855000Y-76427500D01*
G75*
G02*
X130642500Y-76640000I-212500J0D01*
G01*
X130117500Y-76640000D01*
G75*
G02*
X129905000Y-76427500I0J212500D01*
G01*
X129905000Y-76002500D01*
G75*
G02*
X130117500Y-75790000I212500J0D01*
G01*
G37*
%TD*%
%TO.C,R3*%
G36*
G01*
X143680000Y-87132500D02*
X143680000Y-86607500D01*
G75*
G02*
X143892500Y-86395000I212500J0D01*
G01*
X144317500Y-86395000D01*
G75*
G02*
X144530000Y-86607500I0J-212500D01*
G01*
X144530000Y-87132500D01*
G75*
G02*
X144317500Y-87345000I-212500J0D01*
G01*
X143892500Y-87345000D01*
G75*
G02*
X143680000Y-87132500I0J212500D01*
G01*
G37*
G36*
G01*
X142030000Y-87132500D02*
X142030000Y-86607500D01*
G75*
G02*
X142242500Y-86395000I212500J0D01*
G01*
X142667500Y-86395000D01*
G75*
G02*
X142880000Y-86607500I0J-212500D01*
G01*
X142880000Y-87132500D01*
G75*
G02*
X142667500Y-87345000I-212500J0D01*
G01*
X142242500Y-87345000D01*
G75*
G02*
X142030000Y-87132500I0J212500D01*
G01*
G37*
%TD*%
%TO.C,R6*%
G36*
G01*
X143680000Y-82578500D02*
X143680000Y-82053500D01*
G75*
G02*
X143892500Y-81841000I212500J0D01*
G01*
X144317500Y-81841000D01*
G75*
G02*
X144530000Y-82053500I0J-212500D01*
G01*
X144530000Y-82578500D01*
G75*
G02*
X144317500Y-82791000I-212500J0D01*
G01*
X143892500Y-82791000D01*
G75*
G02*
X143680000Y-82578500I0J212500D01*
G01*
G37*
G36*
G01*
X142030000Y-82578500D02*
X142030000Y-82053500D01*
G75*
G02*
X142242500Y-81841000I212500J0D01*
G01*
X142667500Y-81841000D01*
G75*
G02*
X142880000Y-82053500I0J-212500D01*
G01*
X142880000Y-82578500D01*
G75*
G02*
X142667500Y-82791000I-212500J0D01*
G01*
X142242500Y-82791000D01*
G75*
G02*
X142030000Y-82578500I0J212500D01*
G01*
G37*
%TD*%
%TO.C,R4*%
G36*
G01*
X143680000Y-85626500D02*
X143680000Y-85101500D01*
G75*
G02*
X143892500Y-84889000I212500J0D01*
G01*
X144317500Y-84889000D01*
G75*
G02*
X144530000Y-85101500I0J-212500D01*
G01*
X144530000Y-85626500D01*
G75*
G02*
X144317500Y-85839000I-212500J0D01*
G01*
X143892500Y-85839000D01*
G75*
G02*
X143680000Y-85626500I0J212500D01*
G01*
G37*
G36*
G01*
X142030000Y-85626500D02*
X142030000Y-85101500D01*
G75*
G02*
X142242500Y-84889000I212500J0D01*
G01*
X142667500Y-84889000D01*
G75*
G02*
X142880000Y-85101500I0J-212500D01*
G01*
X142880000Y-85626500D01*
G75*
G02*
X142667500Y-85839000I-212500J0D01*
G01*
X142242500Y-85839000D01*
G75*
G02*
X142030000Y-85626500I0J212500D01*
G01*
G37*
%TD*%
%TO.C,R5*%
G36*
G01*
X143680000Y-84102500D02*
X143680000Y-83577500D01*
G75*
G02*
X143892500Y-83365000I212500J0D01*
G01*
X144317500Y-83365000D01*
G75*
G02*
X144530000Y-83577500I0J-212500D01*
G01*
X144530000Y-84102500D01*
G75*
G02*
X144317500Y-84315000I-212500J0D01*
G01*
X143892500Y-84315000D01*
G75*
G02*
X143680000Y-84102500I0J212500D01*
G01*
G37*
G36*
G01*
X142030000Y-84102500D02*
X142030000Y-83577500D01*
G75*
G02*
X142242500Y-83365000I212500J0D01*
G01*
X142667500Y-83365000D01*
G75*
G02*
X142880000Y-83577500I0J-212500D01*
G01*
X142880000Y-84102500D01*
G75*
G02*
X142667500Y-84315000I-212500J0D01*
G01*
X142242500Y-84315000D01*
G75*
G02*
X142030000Y-84102500I0J212500D01*
G01*
G37*
%TD*%
D12*
%TO.C,D2*%
X138684000Y-85344000D03*
X140284000Y-85344000D03*
%TD*%
%TO.C,D3*%
X138684000Y-83820000D03*
X140284000Y-83820000D03*
%TD*%
D13*
%TO.C,U1*%
X126564000Y-87890000D03*
X126564000Y-87090000D03*
X126564000Y-86290000D03*
X126564000Y-85490000D03*
X126564000Y-84690000D03*
X126564000Y-83890000D03*
X126564000Y-83090000D03*
X126564000Y-82290000D03*
D14*
X128264000Y-80590000D03*
X129064000Y-80590000D03*
X129864000Y-80590000D03*
X130664000Y-80590000D03*
X131464000Y-80590000D03*
X132264000Y-80590000D03*
X133064000Y-80590000D03*
X133864000Y-80590000D03*
D13*
X135564000Y-82290000D03*
X135564000Y-83090000D03*
X135564000Y-83890000D03*
X135564000Y-84690000D03*
X135564000Y-85490000D03*
X135564000Y-86290000D03*
X135564000Y-87090000D03*
X135564000Y-87890000D03*
D14*
X133864000Y-89590000D03*
X133064000Y-89590000D03*
X132264000Y-89590000D03*
X131464000Y-89590000D03*
X130664000Y-89590000D03*
X129864000Y-89590000D03*
X129064000Y-89590000D03*
X128264000Y-89590000D03*
%TD*%
D12*
%TO.C,D4*%
X138684000Y-82296000D03*
X140284000Y-82296000D03*
%TD*%
%TO.C,D1*%
X138684000Y-86868000D03*
X140284000Y-86868000D03*
%TD*%
D15*
%TO.C,C5*%
X128475000Y-93165000D03*
X128485000Y-94825000D03*
%TD*%
%TO.C,C4*%
X126355000Y-93165000D03*
X126365000Y-94825000D03*
%TD*%
%TO.C,C3*%
X128075000Y-76255000D03*
X128085000Y-77915000D03*
%TD*%
D16*
%TO.C,C2*%
X142430000Y-88430000D03*
X144090000Y-88420000D03*
%TD*%
%TO.C,C1*%
X142430000Y-91060000D03*
X144090000Y-91050000D03*
%TD*%
M02*
