%TF.GenerationSoftware,KiCad,Pcbnew,(5.1.8-0-10_14)*%
%TF.CreationDate,2020-12-07T18:30:00+01:00*%
%TF.ProjectId,cao,63616f2e-6b69-4636-9164-5f7063625858,rev?*%
%TF.SameCoordinates,Original*%
%TF.FileFunction,Legend,Top*%
%TF.FilePolarity,Positive*%
%FSLAX46Y46*%
G04 Gerber Fmt 4.6, Leading zero omitted, Abs format (unit mm)*
G04 Created by KiCad (PCBNEW (5.1.8-0-10_14)) date 2020-12-07 18:30:00*
%MOMM*%
%LPD*%
G01*
G04 APERTURE LIST*
%ADD10C,0.120000*%
%ADD11C,0.300000*%
%ADD12C,0.200000*%
%ADD13C,0.060000*%
%ADD14C,0.250000*%
%ADD15C,0.400000*%
%ADD16C,0.050000*%
%ADD17C,0.025000*%
%ADD18C,0.125000*%
G04 APERTURE END LIST*
D10*
%TO.C,SW2*%
X134070000Y-94900000D02*
X134070000Y-95100000D01*
X134070000Y-95100000D02*
X137070000Y-95100000D01*
X137070000Y-95100000D02*
X137070000Y-94900000D01*
X134070000Y-92850000D02*
X134070000Y-92600000D01*
X134070000Y-92600000D02*
X137070000Y-92600000D01*
X137070000Y-92600000D02*
X137070000Y-92850000D01*
D11*
X133670000Y-94950000D02*
G75*
G03*
X133670000Y-94950000I0J0D01*
G01*
D10*
%TO.C,SW1*%
X132250000Y-77310000D02*
X132250000Y-77510000D01*
X132250000Y-77510000D02*
X135250000Y-77510000D01*
X135250000Y-77510000D02*
X135250000Y-77310000D01*
X132250000Y-75260000D02*
X132250000Y-75010000D01*
X132250000Y-75010000D02*
X135250000Y-75010000D01*
X135250000Y-75010000D02*
X135250000Y-75260000D01*
D11*
X131850000Y-77360000D02*
G75*
G03*
X131850000Y-77360000I0J0D01*
G01*
D12*
%TO.C,Y1*%
X138260000Y-90080000D02*
G75*
G03*
X138260000Y-90080000I0J0D01*
G01*
D10*
X139560000Y-88280000D02*
X139860000Y-88280000D01*
X139560000Y-91480000D02*
X139860000Y-91480000D01*
X140960000Y-90180000D02*
X140960000Y-89580000D01*
X138460000Y-90180000D02*
X138460000Y-89580000D01*
D13*
%TO.C,R2*%
X130140000Y-93640000D02*
X130140000Y-94240000D01*
X131100000Y-93640000D02*
X131100000Y-94240000D01*
%TO.C,R1*%
X129900000Y-76740000D02*
X129900000Y-77340000D01*
X130860000Y-76740000D02*
X130860000Y-77340000D01*
%TO.C,R3*%
X142980000Y-87350000D02*
X143580000Y-87350000D01*
X142980000Y-86390000D02*
X143580000Y-86390000D01*
%TO.C,R6*%
X142980000Y-82796000D02*
X143580000Y-82796000D01*
X142980000Y-81836000D02*
X143580000Y-81836000D01*
%TO.C,R4*%
X142980000Y-85844000D02*
X143580000Y-85844000D01*
X142980000Y-84884000D02*
X143580000Y-84884000D01*
%TO.C,R5*%
X142980000Y-84320000D02*
X143580000Y-84320000D01*
X142980000Y-83360000D02*
X143580000Y-83360000D01*
%TO.C,D2*%
X139144000Y-85814000D02*
X139824000Y-85814000D01*
X139144000Y-84874000D02*
X139824000Y-84874000D01*
D14*
X138114000Y-85354000D02*
G75*
G03*
X138114000Y-85354000I0J0D01*
G01*
D13*
%TO.C,D3*%
X139144000Y-84290000D02*
X139824000Y-84290000D01*
X139144000Y-83350000D02*
X139824000Y-83350000D01*
D14*
X138114000Y-83830000D02*
G75*
G03*
X138114000Y-83830000I0J0D01*
G01*
D10*
%TO.C,U1*%
X134714000Y-81440000D02*
X134664000Y-81440000D01*
X134714000Y-81490000D02*
X134714000Y-81440000D01*
X134714000Y-88740000D02*
X134664000Y-88740000D01*
X134714000Y-88690000D02*
X134714000Y-88740000D01*
X127414000Y-81440000D02*
X127464000Y-81440000D01*
X127414000Y-81490000D02*
X127414000Y-81440000D01*
X127464000Y-88740000D02*
X127464000Y-91090000D01*
X127414000Y-88740000D02*
X127464000Y-88740000D01*
X127414000Y-88690000D02*
X127414000Y-88740000D01*
%TO.C,J2*%
X145368000Y-80852000D02*
X142478000Y-80852000D01*
X137588000Y-80851999D02*
X140478000Y-80852000D01*
X142478000Y-80532000D02*
X142478000Y-80832000D01*
X140478000Y-80532000D02*
X142478000Y-80532000D01*
X140478000Y-80832000D02*
X140478000Y-80532000D01*
X137588000Y-77358667D02*
X137588000Y-79105333D01*
X137588000Y-79105333D02*
X137588000Y-80851999D01*
X137588000Y-75612000D02*
X137588000Y-77358667D01*
X145368000Y-75612001D02*
X137588000Y-75612000D01*
X145368000Y-80852000D02*
X145368000Y-75612001D01*
%TO.C,J1*%
X124440000Y-78610000D02*
X124440000Y-94110000D01*
X121940000Y-94110000D02*
X121940000Y-78610000D01*
X121940000Y-78610000D02*
X124440000Y-78610000D01*
X121940000Y-94110000D02*
X124440000Y-94110000D01*
D15*
X123190000Y-93810000D02*
G75*
G03*
X123190000Y-93810000I0J0D01*
G01*
D13*
%TO.C,D4*%
X139144000Y-82766000D02*
X139824000Y-82766000D01*
X139144000Y-81826000D02*
X139824000Y-81826000D01*
D14*
X138114000Y-82306000D02*
G75*
G03*
X138114000Y-82306000I0J0D01*
G01*
D13*
%TO.C,D1*%
X139144000Y-87338000D02*
X139824000Y-87338000D01*
X139144000Y-86398000D02*
X139824000Y-86398000D01*
D14*
X138114000Y-86878000D02*
G75*
G03*
X138114000Y-86878000I0J0D01*
G01*
D13*
%TO.C,C5*%
X128970000Y-94400000D02*
X128970000Y-93600000D01*
X127970000Y-94400000D02*
X127970000Y-93600000D01*
D10*
X128497361Y-95245000D02*
G75*
G03*
X128497361Y-95245000I-22361J0D01*
G01*
D13*
%TO.C,C4*%
X126850000Y-94400000D02*
X126850000Y-93600000D01*
X125850000Y-94400000D02*
X125850000Y-93600000D01*
D10*
X126377361Y-95245000D02*
G75*
G03*
X126377361Y-95245000I-22361J0D01*
G01*
D13*
%TO.C,C3*%
X128570000Y-77490000D02*
X128570000Y-76690000D01*
X127570000Y-77490000D02*
X127570000Y-76690000D01*
D10*
X128097361Y-78335000D02*
G75*
G03*
X128097361Y-78335000I-22361J0D01*
G01*
D13*
%TO.C,C2*%
X143665000Y-87935000D02*
X142865000Y-87935000D01*
X143665000Y-88935000D02*
X142865000Y-88935000D01*
D10*
X144532361Y-88430000D02*
G75*
G03*
X144532361Y-88430000I-22361J0D01*
G01*
D13*
%TO.C,C1*%
X143665000Y-90565000D02*
X142865000Y-90565000D01*
X143665000Y-91565000D02*
X142865000Y-91565000D01*
D10*
X144532361Y-91060000D02*
G75*
G03*
X144532361Y-91060000I-22361J0D01*
G01*
%TO.C,SW2*%
D16*
X135369333Y-92028952D02*
X135397904Y-92038476D01*
X135445523Y-92038476D01*
X135464571Y-92028952D01*
X135474095Y-92019428D01*
X135483619Y-92000380D01*
X135483619Y-91981333D01*
X135474095Y-91962285D01*
X135464571Y-91952761D01*
X135445523Y-91943238D01*
X135407428Y-91933714D01*
X135388380Y-91924190D01*
X135378857Y-91914666D01*
X135369333Y-91895619D01*
X135369333Y-91876571D01*
X135378857Y-91857523D01*
X135388380Y-91848000D01*
X135407428Y-91838476D01*
X135455047Y-91838476D01*
X135483619Y-91848000D01*
X135550285Y-91838476D02*
X135597904Y-92038476D01*
X135636000Y-91895619D01*
X135674095Y-92038476D01*
X135721714Y-91838476D01*
X135788380Y-91857523D02*
X135797904Y-91848000D01*
X135816952Y-91838476D01*
X135864571Y-91838476D01*
X135883619Y-91848000D01*
X135893142Y-91857523D01*
X135902666Y-91876571D01*
X135902666Y-91895619D01*
X135893142Y-91924190D01*
X135778857Y-92038476D01*
X135902666Y-92038476D01*
%TO.C,SW1*%
X132575333Y-78058952D02*
X132603904Y-78068476D01*
X132651523Y-78068476D01*
X132670571Y-78058952D01*
X132680095Y-78049428D01*
X132689619Y-78030380D01*
X132689619Y-78011333D01*
X132680095Y-77992285D01*
X132670571Y-77982761D01*
X132651523Y-77973238D01*
X132613428Y-77963714D01*
X132594380Y-77954190D01*
X132584857Y-77944666D01*
X132575333Y-77925619D01*
X132575333Y-77906571D01*
X132584857Y-77887523D01*
X132594380Y-77878000D01*
X132613428Y-77868476D01*
X132661047Y-77868476D01*
X132689619Y-77878000D01*
X132756285Y-77868476D02*
X132803904Y-78068476D01*
X132842000Y-77925619D01*
X132880095Y-78068476D01*
X132927714Y-77868476D01*
X133108666Y-78068476D02*
X132994380Y-78068476D01*
X133051523Y-78068476D02*
X133051523Y-77868476D01*
X133032476Y-77897047D01*
X133013428Y-77916095D01*
X132994380Y-77925619D01*
%TO.C,Y1*%
X137572761Y-88387238D02*
X137572761Y-88482476D01*
X137506095Y-88282476D02*
X137572761Y-88387238D01*
X137639428Y-88282476D01*
X137810857Y-88482476D02*
X137696571Y-88482476D01*
X137753714Y-88482476D02*
X137753714Y-88282476D01*
X137734666Y-88311047D01*
X137715619Y-88330095D01*
X137696571Y-88339619D01*
%TO.C,R2*%
X130776666Y-95848476D02*
X130710000Y-95753238D01*
X130662380Y-95848476D02*
X130662380Y-95648476D01*
X130738571Y-95648476D01*
X130757619Y-95658000D01*
X130767142Y-95667523D01*
X130776666Y-95686571D01*
X130776666Y-95715142D01*
X130767142Y-95734190D01*
X130757619Y-95743714D01*
X130738571Y-95753238D01*
X130662380Y-95753238D01*
X130852857Y-95667523D02*
X130862380Y-95658000D01*
X130881428Y-95648476D01*
X130929047Y-95648476D01*
X130948095Y-95658000D01*
X130957619Y-95667523D01*
X130967142Y-95686571D01*
X130967142Y-95705619D01*
X130957619Y-95734190D01*
X130843333Y-95848476D01*
X130967142Y-95848476D01*
%TO.C,R1*%
X130268666Y-75528476D02*
X130202000Y-75433238D01*
X130154380Y-75528476D02*
X130154380Y-75328476D01*
X130230571Y-75328476D01*
X130249619Y-75338000D01*
X130259142Y-75347523D01*
X130268666Y-75366571D01*
X130268666Y-75395142D01*
X130259142Y-75414190D01*
X130249619Y-75423714D01*
X130230571Y-75433238D01*
X130154380Y-75433238D01*
X130459142Y-75528476D02*
X130344857Y-75528476D01*
X130402000Y-75528476D02*
X130402000Y-75328476D01*
X130382952Y-75357047D01*
X130363904Y-75376095D01*
X130344857Y-75385619D01*
%TO.C,R3*%
X144896666Y-87050476D02*
X144830000Y-86955238D01*
X144782380Y-87050476D02*
X144782380Y-86850476D01*
X144858571Y-86850476D01*
X144877619Y-86860000D01*
X144887142Y-86869523D01*
X144896666Y-86888571D01*
X144896666Y-86917142D01*
X144887142Y-86936190D01*
X144877619Y-86945714D01*
X144858571Y-86955238D01*
X144782380Y-86955238D01*
X144963333Y-86850476D02*
X145087142Y-86850476D01*
X145020476Y-86926666D01*
X145049047Y-86926666D01*
X145068095Y-86936190D01*
X145077619Y-86945714D01*
X145087142Y-86964761D01*
X145087142Y-87012380D01*
X145077619Y-87031428D01*
X145068095Y-87040952D01*
X145049047Y-87050476D01*
X144991904Y-87050476D01*
X144972857Y-87040952D01*
X144963333Y-87031428D01*
%TO.C,R6*%
X144926666Y-82530476D02*
X144860000Y-82435238D01*
X144812380Y-82530476D02*
X144812380Y-82330476D01*
X144888571Y-82330476D01*
X144907619Y-82340000D01*
X144917142Y-82349523D01*
X144926666Y-82368571D01*
X144926666Y-82397142D01*
X144917142Y-82416190D01*
X144907619Y-82425714D01*
X144888571Y-82435238D01*
X144812380Y-82435238D01*
X145098095Y-82330476D02*
X145060000Y-82330476D01*
X145040952Y-82340000D01*
X145031428Y-82349523D01*
X145012380Y-82378095D01*
X145002857Y-82416190D01*
X145002857Y-82492380D01*
X145012380Y-82511428D01*
X145021904Y-82520952D01*
X145040952Y-82530476D01*
X145079047Y-82530476D01*
X145098095Y-82520952D01*
X145107619Y-82511428D01*
X145117142Y-82492380D01*
X145117142Y-82444761D01*
X145107619Y-82425714D01*
X145098095Y-82416190D01*
X145079047Y-82406666D01*
X145040952Y-82406666D01*
X145021904Y-82416190D01*
X145012380Y-82425714D01*
X145002857Y-82444761D01*
%TO.C,R4*%
X144906666Y-85580476D02*
X144840000Y-85485238D01*
X144792380Y-85580476D02*
X144792380Y-85380476D01*
X144868571Y-85380476D01*
X144887619Y-85390000D01*
X144897142Y-85399523D01*
X144906666Y-85418571D01*
X144906666Y-85447142D01*
X144897142Y-85466190D01*
X144887619Y-85475714D01*
X144868571Y-85485238D01*
X144792380Y-85485238D01*
X145078095Y-85447142D02*
X145078095Y-85580476D01*
X145030476Y-85370952D02*
X144982857Y-85513809D01*
X145106666Y-85513809D01*
%TO.C,R5*%
X144916666Y-83970476D02*
X144850000Y-83875238D01*
X144802380Y-83970476D02*
X144802380Y-83770476D01*
X144878571Y-83770476D01*
X144897619Y-83780000D01*
X144907142Y-83789523D01*
X144916666Y-83808571D01*
X144916666Y-83837142D01*
X144907142Y-83856190D01*
X144897619Y-83865714D01*
X144878571Y-83875238D01*
X144802380Y-83875238D01*
X145097619Y-83770476D02*
X145002380Y-83770476D01*
X144992857Y-83865714D01*
X145002380Y-83856190D01*
X145021428Y-83846666D01*
X145069047Y-83846666D01*
X145088095Y-83856190D01*
X145097619Y-83865714D01*
X145107142Y-83884761D01*
X145107142Y-83932380D01*
X145097619Y-83951428D01*
X145088095Y-83960952D01*
X145069047Y-83970476D01*
X145021428Y-83970476D01*
X145002380Y-83960952D01*
X144992857Y-83951428D01*
%TO.C,D2*%
D17*
X139410190Y-86039238D02*
X139410190Y-85939238D01*
X139434000Y-85939238D01*
X139448285Y-85944000D01*
X139457809Y-85953523D01*
X139462571Y-85963047D01*
X139467333Y-85982095D01*
X139467333Y-85996380D01*
X139462571Y-86015428D01*
X139457809Y-86024952D01*
X139448285Y-86034476D01*
X139434000Y-86039238D01*
X139410190Y-86039238D01*
X139505428Y-85948761D02*
X139510190Y-85944000D01*
X139519714Y-85939238D01*
X139543523Y-85939238D01*
X139553047Y-85944000D01*
X139557809Y-85948761D01*
X139562571Y-85958285D01*
X139562571Y-85967809D01*
X139557809Y-85982095D01*
X139500666Y-86039238D01*
X139562571Y-86039238D01*
%TO.C,D3*%
X139410190Y-84515238D02*
X139410190Y-84415238D01*
X139434000Y-84415238D01*
X139448285Y-84420000D01*
X139457809Y-84429523D01*
X139462571Y-84439047D01*
X139467333Y-84458095D01*
X139467333Y-84472380D01*
X139462571Y-84491428D01*
X139457809Y-84500952D01*
X139448285Y-84510476D01*
X139434000Y-84515238D01*
X139410190Y-84515238D01*
X139500666Y-84415238D02*
X139562571Y-84415238D01*
X139529238Y-84453333D01*
X139543523Y-84453333D01*
X139553047Y-84458095D01*
X139557809Y-84462857D01*
X139562571Y-84472380D01*
X139562571Y-84496190D01*
X139557809Y-84505714D01*
X139553047Y-84510476D01*
X139543523Y-84515238D01*
X139514952Y-84515238D01*
X139505428Y-84510476D01*
X139500666Y-84505714D01*
%TO.C,U1*%
D18*
X126309047Y-80466190D02*
X126309047Y-80870952D01*
X126332857Y-80918571D01*
X126356666Y-80942380D01*
X126404285Y-80966190D01*
X126499523Y-80966190D01*
X126547142Y-80942380D01*
X126570952Y-80918571D01*
X126594761Y-80870952D01*
X126594761Y-80466190D01*
X127094761Y-80966190D02*
X126809047Y-80966190D01*
X126951904Y-80966190D02*
X126951904Y-80466190D01*
X126904285Y-80537619D01*
X126856666Y-80585238D01*
X126809047Y-80609047D01*
%TO.C,J2*%
X136843333Y-76146190D02*
X136843333Y-76503333D01*
X136819523Y-76574761D01*
X136771904Y-76622380D01*
X136700476Y-76646190D01*
X136652857Y-76646190D01*
X137057619Y-76193809D02*
X137081428Y-76170000D01*
X137129047Y-76146190D01*
X137248095Y-76146190D01*
X137295714Y-76170000D01*
X137319523Y-76193809D01*
X137343333Y-76241428D01*
X137343333Y-76289047D01*
X137319523Y-76360476D01*
X137033809Y-76646190D01*
X137343333Y-76646190D01*
%TO.C,J1*%
X123033333Y-94726190D02*
X123033333Y-95083333D01*
X123009523Y-95154761D01*
X122961904Y-95202380D01*
X122890476Y-95226190D01*
X122842857Y-95226190D01*
X123533333Y-95226190D02*
X123247619Y-95226190D01*
X123390476Y-95226190D02*
X123390476Y-94726190D01*
X123342857Y-94797619D01*
X123295238Y-94845238D01*
X123247619Y-94869047D01*
%TO.C,H1*%
X124869047Y-76706190D02*
X124869047Y-76206190D01*
X124869047Y-76444285D02*
X125154761Y-76444285D01*
X125154761Y-76706190D02*
X125154761Y-76206190D01*
X125654761Y-76706190D02*
X125369047Y-76706190D01*
X125511904Y-76706190D02*
X125511904Y-76206190D01*
X125464285Y-76277619D01*
X125416666Y-76325238D01*
X125369047Y-76349047D01*
%TO.C,D4*%
D17*
X139410190Y-82991238D02*
X139410190Y-82891238D01*
X139434000Y-82891238D01*
X139448285Y-82896000D01*
X139457809Y-82905523D01*
X139462571Y-82915047D01*
X139467333Y-82934095D01*
X139467333Y-82948380D01*
X139462571Y-82967428D01*
X139457809Y-82976952D01*
X139448285Y-82986476D01*
X139434000Y-82991238D01*
X139410190Y-82991238D01*
X139553047Y-82924571D02*
X139553047Y-82991238D01*
X139529238Y-82886476D02*
X139505428Y-82957904D01*
X139567333Y-82957904D01*
%TO.C,D1*%
X139410190Y-87563238D02*
X139410190Y-87463238D01*
X139434000Y-87463238D01*
X139448285Y-87468000D01*
X139457809Y-87477523D01*
X139462571Y-87487047D01*
X139467333Y-87506095D01*
X139467333Y-87520380D01*
X139462571Y-87539428D01*
X139457809Y-87548952D01*
X139448285Y-87558476D01*
X139434000Y-87563238D01*
X139410190Y-87563238D01*
X139562571Y-87563238D02*
X139505428Y-87563238D01*
X139534000Y-87563238D02*
X139534000Y-87463238D01*
X139524476Y-87477523D01*
X139514952Y-87487047D01*
X139505428Y-87491809D01*
%TO.C,C5*%
X128507333Y-95793714D02*
X128502571Y-95798476D01*
X128488285Y-95803238D01*
X128478761Y-95803238D01*
X128464476Y-95798476D01*
X128454952Y-95788952D01*
X128450190Y-95779428D01*
X128445428Y-95760380D01*
X128445428Y-95746095D01*
X128450190Y-95727047D01*
X128454952Y-95717523D01*
X128464476Y-95708000D01*
X128478761Y-95703238D01*
X128488285Y-95703238D01*
X128502571Y-95708000D01*
X128507333Y-95712761D01*
X128597809Y-95703238D02*
X128550190Y-95703238D01*
X128545428Y-95750857D01*
X128550190Y-95746095D01*
X128559714Y-95741333D01*
X128583523Y-95741333D01*
X128593047Y-95746095D01*
X128597809Y-95750857D01*
X128602571Y-95760380D01*
X128602571Y-95784190D01*
X128597809Y-95793714D01*
X128593047Y-95798476D01*
X128583523Y-95803238D01*
X128559714Y-95803238D01*
X128550190Y-95798476D01*
X128545428Y-95793714D01*
%TO.C,C4*%
X126338333Y-95793714D02*
X126333571Y-95798476D01*
X126319285Y-95803238D01*
X126309761Y-95803238D01*
X126295476Y-95798476D01*
X126285952Y-95788952D01*
X126281190Y-95779428D01*
X126276428Y-95760380D01*
X126276428Y-95746095D01*
X126281190Y-95727047D01*
X126285952Y-95717523D01*
X126295476Y-95708000D01*
X126309761Y-95703238D01*
X126319285Y-95703238D01*
X126333571Y-95708000D01*
X126338333Y-95712761D01*
X126424047Y-95736571D02*
X126424047Y-95803238D01*
X126400238Y-95698476D02*
X126376428Y-95769904D01*
X126438333Y-95769904D01*
%TO.C,C3*%
X127999333Y-75473714D02*
X127994571Y-75478476D01*
X127980285Y-75483238D01*
X127970761Y-75483238D01*
X127956476Y-75478476D01*
X127946952Y-75468952D01*
X127942190Y-75459428D01*
X127937428Y-75440380D01*
X127937428Y-75426095D01*
X127942190Y-75407047D01*
X127946952Y-75397523D01*
X127956476Y-75388000D01*
X127970761Y-75383238D01*
X127980285Y-75383238D01*
X127994571Y-75388000D01*
X127999333Y-75392761D01*
X128032666Y-75383238D02*
X128094571Y-75383238D01*
X128061238Y-75421333D01*
X128075523Y-75421333D01*
X128085047Y-75426095D01*
X128089809Y-75430857D01*
X128094571Y-75440380D01*
X128094571Y-75464190D01*
X128089809Y-75473714D01*
X128085047Y-75478476D01*
X128075523Y-75483238D01*
X128046952Y-75483238D01*
X128037428Y-75478476D01*
X128032666Y-75473714D01*
%TO.C,C2*%
X145017333Y-88681714D02*
X145012571Y-88686476D01*
X144998285Y-88691238D01*
X144988761Y-88691238D01*
X144974476Y-88686476D01*
X144964952Y-88676952D01*
X144960190Y-88667428D01*
X144955428Y-88648380D01*
X144955428Y-88634095D01*
X144960190Y-88615047D01*
X144964952Y-88605523D01*
X144974476Y-88596000D01*
X144988761Y-88591238D01*
X144998285Y-88591238D01*
X145012571Y-88596000D01*
X145017333Y-88600761D01*
X145055428Y-88600761D02*
X145060190Y-88596000D01*
X145069714Y-88591238D01*
X145093523Y-88591238D01*
X145103047Y-88596000D01*
X145107809Y-88600761D01*
X145112571Y-88610285D01*
X145112571Y-88619809D01*
X145107809Y-88634095D01*
X145050666Y-88691238D01*
X145112571Y-88691238D01*
%TO.C,C1*%
X145017333Y-91221714D02*
X145012571Y-91226476D01*
X144998285Y-91231238D01*
X144988761Y-91231238D01*
X144974476Y-91226476D01*
X144964952Y-91216952D01*
X144960190Y-91207428D01*
X144955428Y-91188380D01*
X144955428Y-91174095D01*
X144960190Y-91155047D01*
X144964952Y-91145523D01*
X144974476Y-91136000D01*
X144988761Y-91131238D01*
X144998285Y-91131238D01*
X145012571Y-91136000D01*
X145017333Y-91140761D01*
X145112571Y-91231238D02*
X145055428Y-91231238D01*
X145084000Y-91231238D02*
X145084000Y-91131238D01*
X145074476Y-91145523D01*
X145064952Y-91155047D01*
X145055428Y-91159809D01*
%TD*%
M02*
